<svg width="66" height="50" xmlns="http://www.w3.org/2000/svg">

 <g>
  <title>background</title>
  <rect fill="none" id="canvas_background" height="52" width="68" y="-1" x="-1"/>
 </g>
 <g>
  <title>Layer 1</title>
  <path fill="#c7ceac" stroke="null" id="svg_1" d="m58.122119,5.164843a6.147736,5.0676 0 0 1 6.147736,5.0676l0,30.405599a6.147736,5.0676 0 0 1 -6.147736,5.0676l-49.181891,0a6.147736,5.0676 0 0 1 -6.147736,-5.0676l0,-30.405599c0,-2.78718 2.766481,-5.0676 6.147736,-5.0676l49.181891,0zm-13.432804,23.057579l19.580541,12.415619l0,-5.0676l-15.738205,-9.88182l15.738205,-10.38858l0,-5.0676l-30.738682,20.270399l-30.738682,-20.270399l0,5.0676l15.738205,10.38858l-15.738205,9.88182l0,5.0676l19.580541,-12.415619l11.158142,7.34802l11.158142,-7.34802z"/>
 </g>
</svg>